<?xml version="1.0" encoding="UTF-8" standalone="no"?>
<svg
   version="1.0"
   width="271pt"
   height="272pt"
   viewBox="0 0 271 272"
   preserveAspectRatio="xMidYMid meet"
   id="svg28"
   sodipodi:docname="logo_campero_fertilizadoras2.svg"
   inkscape:version="1.1.1 (3bf5ae0d25, 2021-09-20, custom)"
   xmlns:inkscape="http://www.inkscape.org/namespaces/inkscape"
   xmlns:sodipodi="http://sodipodi.sourceforge.net/DTD/sodipodi-0.dtd"
   xmlns="http://www.w3.org/2000/svg"
   xmlns:svg="http://www.w3.org/2000/svg">
  <defs
     id="defs32" />
  <sodipodi:namedview
     id="namedview30"
     pagecolor="#ffffff"
     bordercolor="#666666"
     borderopacity="1.0"
     inkscape:pageshadow="2"
     inkscape:pageopacity="0.0"
     inkscape:pagecheckerboard="true"
     inkscape:document-units="pt"
     showgrid="false"
     inkscape:zoom="1.3921165"
     inkscape:cx="242.79577"
     inkscape:cy="181.3785"
     inkscape:window-width="1616"
     inkscape:window-height="995"
     inkscape:window-x="26"
     inkscape:window-y="23"
     inkscape:window-maximized="0"
     inkscape:current-layer="svg28" />
  <g
     id="g3687"
     transform="translate(-151.60705,1.7109459)">
    <rect
       style="fill:#cccccc;fill-opacity:1;stroke-width:0.840557"
       id="rect3560"
       width="270.34842"
       height="271.16284"
       x="152.21527"
       y="-1.1553618" />
    <rect
       style="fill:#ffffff;fill-opacity:1;stroke-width:0.75"
       id="rect3554"
       width="236.44514"
       height="198.77908"
       x="169.1669"
       y="15.577399" />
    <g
       id="g3480"
       transform="translate(52.828027,-21.122711)">
      <g
         transform="matrix(0.05047397,0,0,-0.05047397,103.1114,184.21594)"
         fill="#000000"
         stroke="none"
         id="g26"
         style="fill:#d40000">
        <path
           d="m 2165,2553 c -36,-9 -87,-55 -106,-97 -17,-37 -19,-70 -19,-376 v -335 l -63,-66 c -77,-78 -136,-176 -174,-284 -25,-72 -27,-93 -27,-215 0,-118 3,-145 26,-212 103,-307 364,-498 682,-498 114,0 210,22 313,71 128,61 263,196 320,319 l 28,60 h 276 276 l 6,-59 c 10,-115 98,-251 207,-321 137,-88 327,-94 478,-16 17,9 58,41 91,72 74,68 124,162 141,265 29,170 -48,353 -187,449 l -51,35 -4,165 c -3,161 -4,166 -33,219 -18,32 -46,64 -69,80 l -40,26 -487,3 -488,3 -3,287 c -3,271 -4,289 -25,327 -25,48 -58,80 -96,94 -28,11 -929,14 -972,4 z"
           id="path2"
           style="fill:#d40000" />
        <path
           d="m 602,1823 3,-98 30,-3 c 27,-3 39,-19 125,-159 52,-86 155,-245 228,-352 93,-139 128,-197 117,-199 -10,-2 -15,-16 -15,-43 v -39 h 125 125 v 39 c 0,23 -5,41 -12,44 -8,2 31,70 107,183 66,98 168,255 226,349 88,141 110,171 132,173 22,3 26,9 29,46 1,23 1,68 0,99 l -4,57 H 1209 599 Z"
           id="path4"
           style="fill:#d40000" />
        <path
           d="m 994,906 c -10,-26 4,-48 28,-44 17,2 23,10 23,28 0,18 -6,26 -23,28 -13,2 -25,-3 -28,-12 z"
           id="path6"
           style="fill:#d40000" />
        <path
           d="m 891,886 c -19,-23 -4,-58 22,-54 17,2 22,10 22,33 0,34 -24,45 -44,21 z"
           id="path8"
           style="fill:#d40000" />
        <path
           d="m 947,824 c -23,-23 7,-69 37,-58 25,10 17,58 -9,62 -12,2 -24,0 -28,-4 z"
           id="path10"
           style="fill:#d40000" />
        <path
           d="m 860,785 c -25,-30 5,-57 40,-35 11,7 12,14 4,27 -15,23 -29,26 -44,8 z"
           id="path12"
           style="fill:#d40000" />
        <path
           d="m 722,701 c -23,-14 -10,-46 18,-46 16,0 26,6 28,19 3,16 -12,36 -28,36 -3,0 -11,-4 -18,-9 z"
           id="path14"
           style="fill:#d40000" />
        <path
           d="m 810,695 c -11,-13 -11,-19 3,-32 21,-21 49,-9 45,19 -4,28 -30,35 -48,13 z"
           id="path16"
           style="fill:#d40000" />
        <path
           d="m 763,623 c -7,-3 -13,-16 -13,-29 0,-17 5,-24 20,-24 11,0 23,7 27,16 7,18 -16,44 -34,37 z"
           id="path18"
           style="fill:#d40000" />
        <path
           d="m 667,603 c -13,-12 -7,-41 10,-47 21,-9 46,16 37,37 -6,17 -35,23 -47,10 z"
           id="path20"
           style="fill:#d40000" />
        <path
           d="m 586,511 c -11,-18 6,-42 28,-39 29,4 29,42 -1,46 -11,2 -24,-1 -27,-7 z"
           id="path22"
           style="fill:#d40000" />
        <path
           d="m 683,504 c -3,-8 -1,-20 5,-26 16,-16 42,-2 42,22 0,24 -38,28 -47,4 z"
           id="path24"
           style="fill:#d40000" />
      </g>
      <g
         transform="matrix(0.0494682,0,0,-0.0494682,106.41408,243.16749)"
         fill="#000000"
         stroke="none"
         id="g118"
         style="fill:#4646ff;fill-opacity:1">
        <path
           d="m 550,1275 v -155 l 2038,2 2037,3 3,153 3,152 H 2590 550 Z"
           id="path114"
           style="fill:#4646ff;fill-opacity:1" />
        <path
           d="M 550,615 V 460 H 2590 4630 V 615 770 H 2590 550 Z"
           id="path116"
           style="fill:#4646ff;fill-opacity:1" />
      </g>
    </g>
  </g>
</svg>
